<?xml version="1.0" encoding="UTF-8" standalone="no"?><!DOCTYPE svg PUBLIC "-//W3C//DTD SVG 1.1//EN" "http://www.w3.org/Graphics/SVG/1.1/DTD/svg11.dtd"><svg width="100%" height="100%" viewBox="0 0 37 9" version="1.1" xmlns="http://www.w3.org/2000/svg" xmlns:xlink="http://www.w3.org/1999/xlink" xml:space="preserve" style="fill-rule:evenodd;clip-rule:evenodd;stroke-linejoin:round;stroke-miterlimit:1.41421;"><path d="M9,4.5c0,2.486 -2.014,4.5 -4.5,4.5c-2.486,0 -4.5,-2.014 -4.5,-4.5c0,-2.486 2.014,-4.5 4.5,-4.5c2.486,0 4.5,2.014 4.5,4.5" style="fill:#f5f5f5;fill-rule:nonzero;"/><path d="M23,4.5c0,2.486 -2.014,4.5 -4.5,4.5c-2.486,0 -4.5,-2.014 -4.5,-4.5c0,-2.486 2.014,-4.5 4.5,-4.5c2.486,0 4.5,2.014 4.5,4.5" style="fill:#f5f5f5;fill-rule:nonzero;"/><path d="M37,4.5c0,2.486 -2.014,4.5 -4.5,4.5c-2.486,0 -4.5,-2.014 -4.5,-4.5c0,-2.486 2.014,-4.5 4.5,-4.5c2.486,0 4.5,2.014 4.5,4.5" style="fill:#f5f5f5;fill-rule:nonzero;"/></svg>