<svg width="100%" height="100%" viewBox="0 0 2845 1278" version="1.1" xmlns="http://www.w3.org/2000/svg" xmlns:xlink="http://www.w3.org/1999/xlink" xml:space="preserve" style="fill-rule:evenodd;clip-rule:evenodd;stroke-linejoin:round;stroke-miterlimit:1.41421;"><path d="M2826.77,753.571c0,-4.938 4.004,-8.942 8.94,-8.942c4.938,0 8.942,4.004 8.942,8.942c0,4.938 -4.004,8.94 -8.942,8.94c-4.936,0 -8.94,-4.002 -8.94,-8.94" style="fill:#fbb03b;fill-rule:nonzero;"/><path d="M124.245,1224.95c0,-9.876 8.006,-17.882 17.882,-17.882c9.876,0 17.882,8.006 17.882,17.882c0,9.876 -8.006,17.882 -17.882,17.882c-9.876,0 -17.882,-8.006 -17.882,-17.882" style="fill:#5686fd;fill-rule:nonzero;"/><path d="M0,1266.92c0,-5.914 4.794,-10.708 10.708,-10.708c5.912,0 10.706,4.794 10.706,10.708c0,5.914 -4.794,10.708 -10.706,10.708c-5.914,0 -10.708,-4.794 -10.708,-10.708" style="fill:#ed565c;fill-rule:nonzero;"/><path d="M2773.49,868.481c-15.574,15.784 -15.406,41.206 0.378,56.78l28.202,-28.58l-28.58,-28.2Z" style="fill:#6ccbc3;fill-rule:nonzero;"/><path d="M2250.37,163.983c3.206,-3.206 3.206,-8.406 0,-11.612c-3.206,-3.206 -8.406,-3.206 -11.612,0l-25.444,25.444c-3.206,3.206 -3.206,8.404 0,11.612c3.206,3.206 8.406,3.206 11.612,0l25.444,-25.444Z" style="fill:#ed565c;fill-rule:nonzero;"/></svg>