<svg width="100%" height="100%" viewBox="0 0 191 100" version="1.1" xmlns="http://www.w3.org/2000/svg" xmlns:xlink="http://www.w3.org/1999/xlink" xml:space="preserve" style="fill-rule:evenodd;clip-rule:evenodd;stroke-linejoin:round;stroke-miterlimit:1.41421;">
    <g transform="matrix(1,0,0,1,-1073.15,-696.667)">
        <path d="M1086.68,744.538C1086.68,741.969 1085.28,739.982 1082.85,739.982C1080.4,739.982 1079.03,741.969 1079.03,744.538C1079.03,747.107 1080.4,749.092 1082.85,749.092C1085.28,749.092 1086.68,747.107 1086.68,744.538M1079.03,750.407L1079.03,751.692L1075.76,751.692L1075.76,731.221L1079.09,731.221L1079.09,738.434C1080.17,737.5 1081.51,737.032 1083.09,737.032C1085.13,737.032 1086.8,737.734 1088.11,739.165C1089.42,740.594 1090.07,742.376 1090.07,744.538C1090.07,746.698 1089.42,748.479 1088.11,749.911C1086.8,751.313 1085.13,752.014 1083.09,752.014C1081.42,752.014 1080.05,751.489 1079.03,750.407" style="fill:rgb(51,51,51);fill-rule:nonzero;"/>
    </g>
    <g transform="matrix(1,0,0,1,-1073.15,-696.667)">
        <path d="M1101.97,745.795L1101.97,745.152L1098.26,745.707C1097.21,745.883 1096.36,746.465 1096.36,747.633C1096.36,748.598 1097.1,749.474 1098.44,749.474C1100.34,749.474 1101.97,748.568 1101.97,745.795M1097.27,743.545L1100.92,742.992C1101.74,742.873 1101.97,742.464 1101.97,741.97C1101.97,740.77 1101.15,739.807 1099.28,739.807C1097.5,739.807 1096.51,740.946 1096.36,742.377L1093.27,741.676C1093.53,739.223 1095.75,737.032 1099.26,737.032C1103.64,737.032 1105.3,739.516 1105.3,742.348L1105.3,749.415C1105.3,750.699 1105.29,751.693 1105.29,751.693L1102.18,751.693C1102.18,751.693 1102.17,751.021 1102.17,749.883C1101.51,750.962 1100.1,752.131 1097.8,752.131C1094.82,752.131 1092.98,750.087 1092.98,747.839C1092.98,745.298 1094.85,743.896 1097.27,743.545" style="fill:rgb(51,51,51);fill-rule:nonzero;"/>
    </g>
    <g transform="matrix(1,0,0,1,-1073.15,-696.667)">
        <rect x="1109.81" y="731.222" width="3.329" height="20.471" style="fill:rgb(51,51,51);fill-rule:nonzero;"/>
    </g>
    <g transform="matrix(1,0,0,1,-1073.15,-696.667)">
        <path d="M1121.25,745.823C1118.36,745.151 1116.9,743.661 1116.9,741.297C1116.9,738.697 1119.06,737.032 1122.13,737.032C1124.2,737.032 1125.98,737.822 1127.53,739.428L1125.4,741.704C1124.52,740.507 1123.41,739.894 1122.04,739.894C1120.84,739.894 1120.08,740.507 1120.08,741.238C1120.08,741.91 1120.55,742.348 1121.49,742.582L1123.74,743.107C1126.65,743.779 1128.11,745.267 1128.11,747.576C1128.11,750.174 1126.07,752.014 1122.45,752.014C1119.97,752.014 1117.98,751.08 1116.52,749.239L1118.63,747.079C1119.67,748.451 1121.05,749.152 1122.71,749.152C1124.26,749.152 1124.9,748.51 1124.9,747.692C1124.9,747.079 1124.46,746.641 1123.15,746.289L1121.25,745.823Z" style="fill:rgb(51,51,51);fill-rule:nonzero;"/>
    </g>
    <g transform="matrix(1,0,0,1,-1073.15,-696.667)">
        <path d="M1140.01,745.795L1140.01,745.152L1136.31,745.707C1135.25,745.883 1134.41,746.465 1134.41,747.633C1134.41,748.598 1135.14,749.474 1136.48,749.474C1138.38,749.474 1140.01,748.568 1140.01,745.795M1135.31,743.545L1138.96,742.992C1139.78,742.873 1140.01,742.464 1140.01,741.97C1140.01,740.77 1139.2,739.807 1137.33,739.807C1135.55,739.807 1134.55,740.946 1134.41,742.377L1131.31,741.676C1131.58,739.223 1133.79,737.032 1137.3,737.032C1141.68,737.032 1143.34,739.516 1143.34,742.348L1143.34,749.415C1143.34,750.699 1143.35,751.693 1143.35,751.693L1140.23,751.693C1140.23,751.693 1140.22,751.021 1140.22,749.883C1139.55,750.962 1138.14,752.131 1135.84,752.131C1132.86,752.131 1131.02,750.087 1131.02,747.839C1131.02,745.298 1132.89,743.896 1135.31,743.545" style="fill:rgb(51,51,51);fill-rule:nonzero;"/>
    </g>
    <g transform="matrix(1,0,0,1,-1073.15,-696.667)">
        <path d="M1156.33,751.693L1156.33,743.136C1156.33,741.239 1155.37,740.042 1153.7,740.042C1151.8,740.042 1150.75,741.414 1150.75,743.545L1150.75,751.693L1147.42,751.693L1147.42,737.385L1150.69,737.385L1150.69,738.639C1151.6,737.56 1152.86,737.032 1154.4,737.032C1156.18,737.032 1157.5,737.647 1158.4,738.901C1159.51,737.647 1161,737.032 1162.87,737.032C1166.64,737.032 1168.57,739.254 1168.57,743.37L1168.57,751.693L1165.24,751.693L1165.24,743.136C1165.24,741.239 1164.27,740.042 1162.61,740.042C1160.71,740.042 1159.63,741.414 1159.63,743.545L1159.63,751.693L1156.33,751.693Z" style="fill:rgb(51,51,51);fill-rule:nonzero;"/>
    </g>
    <g transform="matrix(1,0,0,1,-1073.15,-696.667)">
        <path d="M1176.29,745.823C1173.4,745.151 1171.94,743.661 1171.94,741.297C1171.94,738.697 1174.1,737.032 1177.16,737.032C1179.24,737.032 1181.02,737.822 1182.57,739.428L1180.44,741.704C1179.56,740.507 1178.45,739.894 1177.08,739.894C1175.88,739.894 1175.12,740.507 1175.12,741.238C1175.12,741.91 1175.59,742.348 1176.52,742.582L1178.77,743.107C1181.69,743.779 1183.15,745.267 1183.15,747.576C1183.15,750.174 1181.11,752.014 1177.49,752.014C1175.01,752.014 1173.02,751.08 1171.56,749.239L1173.66,747.079C1174.71,748.451 1176.09,749.152 1177.75,749.152C1179.3,749.152 1179.94,748.51 1179.94,747.692C1179.94,747.079 1179.5,746.641 1178.19,746.289L1176.29,745.823Z" style="fill:rgb(51,51,51);fill-rule:nonzero;"/>
    </g>
    <g transform="matrix(1,0,0,1,-1073.15,-696.667)">
        <path d="M1187.42,746.641L1187.42,740.362L1185.32,740.362L1185.32,737.384L1187.42,737.384L1187.42,733.381L1190.72,733.381L1190.72,737.384L1194.14,737.384L1194.14,740.362L1190.72,740.362L1190.72,746.144C1190.72,748.217 1191.19,748.742 1193.06,748.742L1194.14,748.685L1194.14,751.664C1193.7,751.692 1193.12,751.721 1192.36,751.721C1188.65,751.721 1187.42,750.348 1187.42,746.641" style="fill:rgb(51,51,51);fill-rule:nonzero;"/>
    </g>
    <g transform="matrix(1,0,0,1,-1073.15,-696.667)">
        <path d="M1201.15,737.384L1201.15,745.939C1201.15,747.838 1202.12,749.035 1203.84,749.035C1205.71,749.035 1206.82,747.576 1206.82,745.442L1206.82,737.384L1210.15,737.384L1210.15,751.692L1206.88,751.692L1206.88,750.524C1205.97,751.517 1204.72,752.014 1203.17,752.014C1199.93,752.014 1197.82,749.677 1197.82,745.707L1197.82,737.384L1201.15,737.384Z" style="fill:rgb(51,51,51);fill-rule:nonzero;"/>
    </g>
    <g transform="matrix(1,0,0,1,-1073.15,-696.667)">
        <path d="M1217.03,744.538C1217.03,747.107 1218.43,749.092 1220.86,749.092C1223.31,749.092 1224.68,747.107 1224.68,744.538C1224.68,741.969 1223.31,739.982 1220.86,739.982C1218.43,739.982 1217.03,741.969 1217.03,744.538M1224.62,738.434L1224.62,731.221L1227.95,731.221L1227.95,751.692L1224.68,751.692L1224.68,750.407C1223.66,751.489 1222.29,752.014 1220.62,752.014C1218.58,752.014 1216.91,751.313 1215.6,749.911C1214.29,748.479 1213.64,746.698 1213.64,744.538C1213.64,742.376 1214.29,740.594 1215.6,739.165C1216.91,737.734 1218.58,737.032 1220.62,737.032C1222.2,737.032 1223.54,737.5 1224.62,738.434" style="fill:rgb(51,51,51);fill-rule:nonzero;"/>
    </g>
    <g transform="matrix(1,0,0,1,-1073.15,-696.667)">
        <rect x="1232.44" y="737.384" width="3.329" height="14.308" style="fill:rgb(51,51,51);fill-rule:nonzero;"/>
    </g>
    <g transform="matrix(1,0,0,1,-1073.15,-696.667)">
        <path d="M1249.52,747.751C1250.28,746.904 1250.66,745.852 1250.66,744.538C1250.66,743.223 1250.28,742.173 1249.52,741.326C1248.79,740.479 1247.83,740.07 1246.69,740.07C1244.35,740.07 1242.69,741.939 1242.69,744.538C1242.69,747.136 1244.35,749.005 1246.69,749.005C1247.83,749.005 1248.79,748.598 1249.52,747.751M1251.91,739.194C1253.35,740.625 1254.08,742.407 1254.08,744.538C1254.08,746.67 1253.35,748.451 1251.91,749.883C1250.48,751.314 1248.76,752.014 1246.69,752.014C1244.61,752.014 1242.86,751.314 1241.43,749.883C1240,748.451 1239.3,746.67 1239.3,744.538C1239.3,742.407 1240,740.625 1241.43,739.194C1242.86,737.763 1244.61,737.032 1246.69,737.032C1248.76,737.032 1250.48,737.763 1251.91,739.194" style="fill:rgb(51,51,51);fill-rule:nonzero;"/>
    </g>
    <g transform="matrix(1,0,0,1,-1073.15,-696.667)">
        <path d="M1259.62,747.839C1260.79,747.839 1261.72,748.774 1261.72,749.94C1261.72,751.08 1260.79,752.015 1259.62,752.015C1258.45,752.015 1257.51,751.08 1257.51,749.94C1257.51,748.774 1258.45,747.839 1259.62,747.839" style="fill:rgb(51,51,51);fill-rule:nonzero;"/>
    </g>
</svg>
