<svg version="1.1" id="Layer_1" xmlns="http://www.w3.org/2000/svg" xmlns:xlink="http://www.w3.org/1999/xlink" x="0px" y="0px"
	 width="132px" height="50px" viewBox="0 0 132 50" enable-background="new 0 0 132 50" xml:space="preserve">
<g>
	<path fill="#FF5e00" d="M120.221,0.899h-3.101c-0.382,0-0.69,0.306-0.69,0.687v6.202c0,0.378,0.309,0.687,0.69,0.687h3.101
		c0.382,0,0.688-0.309,0.688-0.687V1.586C120.908,1.205,120.603,0.899,120.221,0.899z"/>
	<path fill="#FF5e00" d="M109.625,11.649h-2.791c-0.381,0-0.689,0.306-0.689,0.688v5.578c0,0.383,0.309,0.688,0.689,0.688h2.791
		c0.38,0,0.688-0.305,0.688-0.688v-5.578C110.312,11.955,110.005,11.649,109.625,11.649z"/>
	<path fill="#FF5e00" d="M119.758,21.842h-2.172c-0.381,0-0.688,0.308-0.688,0.688v4.338c0,0.383,0.308,0.689,0.688,0.689h2.172
		c0.383,0,0.688-0.307,0.688-0.689v-4.338C120.445,22.149,120.141,21.842,119.758,21.842z"/>
	<path fill="#FF5e00" d="M129.886,32.031h-1.55c-0.381,0-0.688,0.309-0.688,0.688v3.099c0,0.38,0.307,0.689,0.688,0.689h1.55
		c0.382,0,0.688-0.31,0.688-0.689V32.72C130.574,32.34,130.268,32.031,129.886,32.031z"/>
	<path fill="#FF5e00" d="M119.288,41.912h-1.237c-0.381,0-0.689,0.308-0.689,0.688v2.48c0,0.38,0.309,0.688,0.689,0.688h1.237
		c0.384,0,0.69-0.308,0.69-0.688V42.6C119.979,42.22,119.672,41.912,119.288,41.912z"/>
	<g>
		<g>
			<path fill="#FF5e00" d="M6.844,43.394c1.415,0,2.085-0.694,2.085-1.652c0-1.243-1.392-1.604-3.284-1.916
				c-2.158-0.386-4.053-1.368-4.053-3.815v-0.355c0-2.277,1.68-3.834,5.061-3.834c3.523,0,5.057,2.038,5.057,3.857
				c0,0.406-0.264,0.67-0.672,0.67H9.431c-0.429,0-0.694-0.188-0.694-0.622c0-0.621-0.578-1.536-2.084-1.536
				c-1.322,0-1.871,0.72-1.871,1.654c0,1.127,0.984,1.486,2.805,1.822c2.348,0.433,4.483,1.249,4.483,3.742v0.453
				c0,2.253-1.849,3.906-5.226,3.906c-3.451,0-5.418-1.846-5.418-3.881c0-0.408,0.266-0.672,0.672-0.672h1.63
				c0.433,0,0.718,0.193,0.718,0.625C4.445,42.533,5.309,43.394,6.844,43.394z"/>
			<path fill="#FF5e00" d="M14.83,49.101c-0.408,0-0.766-0.334-0.766-0.769V32.85c0-0.434,0.357-0.767,0.766-0.767h1.27
				c0.434,0,0.816,0.333,0.888,0.743l0.048,0.525c0.766-0.814,2.062-1.51,3.404-1.51c3.165,0,4.387,1.678,4.387,4.842v4.219
				c0,3.165-1.222,4.842-4.387,4.842c-1.223,0-2.445-0.551-3.188-1.294v3.882c0,0.435-0.336,0.769-0.769,0.769H14.83z
				 M17.252,35.749v6.091c0.599,0.693,1.58,1.268,2.49,1.268c1.395,0,1.895-0.74,1.895-2.445v-3.738c0-1.701-0.5-2.445-1.895-2.445
				C18.832,34.479,17.851,35.053,17.252,35.749z"/>
			<path fill="#FF5e00" d="M27.203,40.902v-4.219c0-3.164,1.221-4.842,4.361-4.842c1.245,0,2.564,0.602,3.404,1.51l0.073-0.525
				c0.093-0.41,0.478-0.743,0.907-0.743h1.246c0.41,0,0.745,0.333,0.745,0.767v11.889c0,0.431-0.335,0.767-0.745,0.767h-1.268
				c-0.457,0-0.815-0.336-0.886-0.745l-0.073-0.525c-0.766,0.816-2.037,1.51-3.404,1.51C28.424,45.744,27.203,44.067,27.203,40.902z
				 M30.392,36.924v3.738c0,1.705,0.503,2.445,1.894,2.445c0.909,0,1.869-0.574,2.469-1.268v-6.091
				c-0.6-0.696-1.584-1.271-2.469-1.271C30.895,34.479,30.392,35.223,30.392,36.924z"/>
			<path fill="#FF5e00" d="M46.912,32.443V34c0,0.385-0.266,0.599-0.623,0.599c-1.029,0-2.158,0.552-2.781,1.513v8.627
				c0,0.431-0.336,0.767-0.769,0.767h-1.65c-0.41,0-0.771-0.336-0.771-0.767V32.85c0-0.434,0.36-0.767,0.771-0.767h1.223
				c0.452,0,0.812,0.333,0.886,0.743l0.096,0.814c0.672-1.033,2.061-1.799,3.02-1.799C46.697,31.842,46.912,32.06,46.912,32.443z"/>
			<path fill="#FF5e00" d="M49.504,45.505c-0.406,0-0.766-0.336-0.766-0.767V28.295c0-0.43,0.359-0.767,0.766-0.767h1.654
				c0.431,0,0.767,0.337,0.767,0.767v9.203h0.527l3.403-4.794c0.265-0.381,0.719-0.621,1.176-0.621h2.038
				c0.311,0,0.503,0.36,0.311,0.621l-4.673,6.163l4.985,6.039c0.215,0.24,0.046,0.599-0.266,0.599h-2.204
				c-0.455,0-0.957-0.216-1.223-0.599l-3.57-4.553h-0.505v4.385c0,0.431-0.336,0.767-0.767,0.767H49.504z"/>
			<path fill="#FF5e00" d="M62.143,45.505c-0.408,0-0.768-0.336-0.768-0.767V28.295c0-0.43,0.359-0.767,0.768-0.767h1.655
				c0.429,0,0.767,0.337,0.767,0.767v4.867c0.744-0.746,1.964-1.32,3.188-1.32c3.163,0,4.386,1.678,4.386,4.842v4.219
				c0,3.165-1.223,4.842-4.386,4.842c-1.344,0-2.639-0.693-3.404-1.51l-0.047,0.525c-0.074,0.409-0.456,0.745-0.889,0.745H62.143z
				 M64.564,35.749v6.091c0.598,0.693,1.582,1.268,2.49,1.268c1.392,0,1.895-0.74,1.895-2.445v-3.738
				c0-1.701-0.503-2.445-1.895-2.445C66.146,34.479,65.162,35.053,64.564,35.749z"/>
			<path fill="#FF5e00" d="M75.954,45.505c-0.407,0-0.767-0.336-0.767-0.767V34.455l-0.406-0.024c-0.408,0-0.648-0.312-0.648-0.718
				v-0.937c0-0.405,0.289-0.693,0.695-0.693h2.781c0.43,0,0.766,0.333,0.766,0.767v11.889c0,0.431-0.336,0.767-0.766,0.767H75.954z
				 M76.65,30.787c-1.08,0-1.801-0.433-1.801-1.605c0-1.197,0.721-1.653,1.801-1.653c1.127,0,1.868,0.456,1.868,1.653
				C78.519,30.354,77.777,30.787,76.65,30.787z"/>
			<path fill="#FF5e00" d="M81.615,40.973v-6.494h-0.529c-0.406,0-0.742-0.336-0.742-0.766V32.85c0-0.434,0.336-0.767,0.742-0.767
				h0.674l0.238-2.587c0.047-0.435,0.43-0.769,0.863-0.769h1.174c0.431,0,0.768,0.334,0.768,0.769v2.587h2.685
				c0.43,0,0.766,0.333,0.766,0.767v0.863c0,0.43-0.336,0.766-0.766,0.766h-2.685v6.47c0,1.585,0.599,2.304,1.964,2.304
				c0.337,0,0.696-0.024,1.03-0.072c0.408-0.047,0.695,0.214,0.695,0.599v1.032c0,0.404-0.334,0.816-0.768,0.862
				c-0.502,0.071-1.027,0.095-1.507,0.095C83.053,45.768,81.615,44.114,81.615,40.973z"/>
		</g>
	</g>
</g>
</svg>
